<svg xmlns="http://www.w3.org/2000/svg" width="269.78" height="50" viewBox="0 0 269.78 50">
  <g id="logo-circulo" transform="translate(-641 -1606)">
    <g id="simbolo" transform="translate(641 1606)">
      <path id="Caminho_1" data-name="Caminho 1" d="M28.746,42.984A9.273,9.273,0,1,0,40.991,30.738,14.074,14.074,0,0,1,28.746,42.984ZM25.3,15.047A9.274,9.274,0,1,0,13.056,27.292,14.075,14.075,0,0,1,25.3,15.047Zm1.723,1.662a12.3,12.3,0,1,0,8.7,3.6A12.266,12.266,0,0,0,27.023,16.71Zm10.2-7.166a9.285,9.285,0,0,0-8.475,5.5,14.018,14.018,0,0,1,8.229,4.016h0a14.013,14.013,0,0,1,4.016,8.228,9.275,9.275,0,0,0-3.77-17.749ZM20.7,8.389a11.163,11.163,0,0,1,6.324,5.984,11.163,11.163,0,0,1,6.324-5.984,9.077,9.077,0,0,0-12.648,0Zm6.324,35.268A11.157,11.157,0,0,1,20.7,49.642a9.08,9.08,0,0,0,12.648,0,11.157,11.157,0,0,1-6.324-5.985ZM41.665,29.015a11.165,11.165,0,0,1,5.983,6.324,9.075,9.075,0,0,0,0-12.647,11.154,11.154,0,0,1-5.983,6.323ZM6.4,22.692a9.075,9.075,0,0,0,0,12.647,11.164,11.164,0,0,1,5.983-6.324A11.153,11.153,0,0,1,6.4,22.692Zm6.658,8.047A9.274,9.274,0,1,0,25.3,42.984,14.077,14.077,0,0,1,13.056,30.738Z" transform="translate(-2.023 -4.015)" fill="#f7941e" fill-rule="evenodd"/>
      <path id="Caminho_4" data-name="Caminho 4" d="M26.723,40.968A9.274,9.274,0,1,0,38.968,28.723a14.012,14.012,0,0,1-4.016,8.229h0a14.01,14.01,0,0,1-8.228,4.016M23.277,13.032A9.274,9.274,0,1,0,11.032,25.277,14.072,14.072,0,0,1,23.277,13.032ZM25,14.695A12.306,12.306,0,1,0,33.7,35.7h0a12.308,12.308,0,0,0,0-17.4h0A12.268,12.268,0,0,0,25,14.695ZM35.2,7.528a9.284,9.284,0,0,0-8.475,5.5,14.01,14.01,0,0,1,8.228,4.016h0a14.01,14.01,0,0,1,4.016,8.229A9.276,9.276,0,0,0,35.2,7.528ZM18.676,6.374A11.161,11.161,0,0,1,25,12.358a11.155,11.155,0,0,1,6.323-5.984,9.079,9.079,0,0,0-12.648,0ZM25,41.642a11.161,11.161,0,0,1-6.324,5.984,9.079,9.079,0,0,0,12.648,0A11.155,11.155,0,0,1,25,41.642ZM39.642,27a11.157,11.157,0,0,1,5.984,6.324,9.077,9.077,0,0,0,0-12.648A11.155,11.155,0,0,1,39.642,27ZM4.374,20.676a9.079,9.079,0,0,0,0,12.648A11.161,11.161,0,0,1,10.358,27a11.158,11.158,0,0,1-5.984-6.324Zm6.658,8.047A9.274,9.274,0,1,0,23.277,40.968,14.072,14.072,0,0,1,11.032,28.723ZM3.73,35.2c-.206-.18-.388-.348-.543-.5h0a10.886,10.886,0,0,1,0-15.394h0q.233-.233.543-.5c.036-.032.074-.064.112-.1A11.13,11.13,0,0,1,16.7,5.842l.1-.112q.27-.309.5-.543h0a10.886,10.886,0,0,1,15.393,0v0q.26.26.5.541c.032.037.065.074.1.112A11.13,11.13,0,0,1,46.158,18.7c.038.032.075.063.111.1q.31.27.543.5a10.887,10.887,0,0,1,0,15.394c-.156.155-.337.323-.543.5l-.111.1A11.128,11.128,0,0,1,33.3,48.158c-.032.038-.064.075-.1.112q-.245.281-.5.541h0a10.886,10.886,0,0,1-15.394,0q-.232-.233-.5-.543l-.1-.112A11.13,11.13,0,0,1,3.842,35.3Z" transform="translate(0 -2)" fill="#fff" fill-rule="evenodd"/>
    </g>
    <g id="logo" transform="translate(695.561 1615.723)">
      <path id="saude" d="M454.345,48.064V27.956h13.12v3.1H458.2v4.942h7.961v3.068H458.2V44.94h9.426v3.124Zm-21.539,0V27.956h5.44q6.313,0,9.909,2.689a8.7,8.7,0,0,1,3.6,7.365,8.847,8.847,0,0,1-1.422,4.97,10.643,10.643,0,0,1-4.156,3.574,12.4,12.4,0,0,1-3.376,1.155,24.5,24.5,0,0,1-4.554.355Zm3.917-3.209h2.038a10.56,10.56,0,0,0,6.581-1.823,5.993,5.993,0,0,0,2.367-5.022,5.993,5.993,0,0,0-2.367-5.032,10.62,10.62,0,0,0-6.581-1.813h-2.038Zm-17.342-18.8,2.314-3.5h3.6l-3.251,3.5ZM393.844,48.064h-4.012L400.919,27.3h.313l10.7,20.761h-4.166l-1.82-3.578H395.7Zm3.312-6.447h7.388l-3.657-7.5ZM374.7,43.6a18.458,18.458,0,0,0,3.36,1.548,9.317,9.317,0,0,0,2.893.5,4.871,4.871,0,0,0,2.876-.781,2.388,2.388,0,0,0,1.1-2.031,2.72,2.72,0,0,0-.738-1.865,9.658,9.658,0,0,0-2.574-1.794l-1.693-.914a12.16,12.16,0,0,1-3.662-2.669,4.792,4.792,0,0,1,.817-6.845,7.833,7.833,0,0,1,4.947-1.477,13.627,13.627,0,0,1,2.866.3,14.455,14.455,0,0,1,2.807.923l-.122,3.209A19.774,19.774,0,0,0,384.61,30.5a8.093,8.093,0,0,0-2.293-.384,4.242,4.242,0,0,0-2.447.62,1.939,1.939,0,0,0-.9,1.685,2.136,2.136,0,0,0,.653,1.515,10.066,10.066,0,0,0,2.426,1.614l1.634.842a13.027,13.027,0,0,1,4.023,2.977,5.447,5.447,0,0,1-.924,7.725,8.935,8.935,0,0,1-5.653,1.652,16.425,16.425,0,0,1-3.147-.3,14.469,14.469,0,0,1-2.93-.895Zm41.15-15.74V39.6a6.252,6.252,0,0,0,1.378,4.388,5.259,5.259,0,0,0,4.064,1.491,5.137,5.137,0,0,0,4.023-1.51,6.46,6.46,0,0,0,1.362-4.454V27.865H430.2v11.7a8.331,8.331,0,0,1-9,9.055q-4.474,0-6.909-2.338a8.8,8.8,0,0,1-2.434-6.66V27.865Z" transform="translate(-252.406 -22.554)" fill="#f7941e"/>
      <path id="circulo" d="M206.809,44.128a4.982,4.982,0,0,1-.776-3.058V27.865h-3.959v13.83a5.844,5.844,0,0,0,6.122,6.516v.007h.193l.2,0v0h6.771V44.994h-6.436a2.317,2.317,0,0,1-2.11-.866m7.3-6.21a10.687,10.687,0,0,1,.581-3.535,10.163,10.163,0,0,1,1.726-3.082,10.748,10.748,0,0,1,3.9-3.015,11.921,11.921,0,0,1,9.227-.28,10.917,10.917,0,0,1,3.605,2.272,10.668,10.668,0,0,1,2.428,11.814,10.315,10.315,0,0,1-2.428,3.441,11.406,11.406,0,0,1-3.637,2.286,11.734,11.734,0,0,1-8.5.014,11.067,11.067,0,0,1-3.605-2.277,10.332,10.332,0,0,1-2.46-3.46A10.473,10.473,0,0,1,214.108,37.918Zm4.054,0a7.132,7.132,0,0,0,2.048,5.207,7.175,7.175,0,0,0,10.119,0,7.12,7.12,0,0,0,2.059-5.207,7.149,7.149,0,0,0-2.043-5.216,7.239,7.239,0,0,0-10.151,0A7.162,7.162,0,0,0,218.162,37.918Zm-32.98-10.053V39.6a6.252,6.252,0,0,0,1.378,4.388,5.259,5.259,0,0,0,4.065,1.491,5.137,5.137,0,0,0,4.022-1.51,6.46,6.46,0,0,0,1.362-4.454V27.865h3.526v11.7a8.331,8.331,0,0,1-9,9.055q-4.474,0-6.91-2.338a8.8,8.8,0,0,1-2.434-6.66V27.865Zm-6.125,18.8a12.554,12.554,0,0,1-10.446,1.392,11.485,11.485,0,0,1-3.273-1.628,10.26,10.26,0,0,1-4.329-8.515,10.093,10.093,0,0,1,3.257-7.677,11.418,11.418,0,0,1,8.14-3.058,12.1,12.1,0,0,1,3.41.473,12.612,12.612,0,0,1,3.178,1.425l-.4,3.924a9.658,9.658,0,0,0-2.814-1.927,7.718,7.718,0,0,0-3.109-.639,7.5,7.5,0,0,0-5.474,2.087,7.187,7.187,0,0,0-2.132,5.363,7.051,7.051,0,0,0,2.08,5.235,7.216,7.216,0,0,0,5.295,2.059,8.758,8.758,0,0,0,3.495-.72,12.379,12.379,0,0,0,3.357-2.258Zm-34.511,1.3V27.865h5.194a21.606,21.606,0,0,1,4.292.327,8.5,8.5,0,0,1,2.718,1.06,6.072,6.072,0,0,1,1.932,1.912,4.446,4.446,0,0,1,.7,2.385,5.013,5.013,0,0,1-1.267,3.422,7.665,7.665,0,0,1-3.653,2.163c3.012,2.039,5.7,5.939,7.253,8.837H157.12c-1.82-3.757-5.473-6.979-8.719-9.293v9.293Zm3.864-10.929h1.811a7.5,7.5,0,0,0,3.89-.824,2.656,2.656,0,0,0,1.341-2.395,2.5,2.5,0,0,0-1.346-2.343,9.128,9.128,0,0,0-4.238-.748H148.41ZM136.874,47.971V27.865h3.959V47.971Zm.456-21.917,2.314-3.5h3.6l-3.251,3.5Zm-3.682,20.615A12.554,12.554,0,0,1,123.2,48.061a11.474,11.474,0,0,1-3.273-1.628,10.26,10.26,0,0,1-4.329-8.515,10.094,10.094,0,0,1,3.257-7.677A11.417,11.417,0,0,1,127,27.183a12.1,12.1,0,0,1,3.41.473,12.613,12.613,0,0,1,3.178,1.425l-.4,3.924a9.657,9.657,0,0,0-2.813-1.927,7.722,7.722,0,0,0-3.109-.639,7.5,7.5,0,0,0-5.474,2.087,7.187,7.187,0,0,0-2.132,5.363,7.051,7.051,0,0,0,2.08,5.235,7.216,7.216,0,0,0,5.295,2.059,8.758,8.758,0,0,0,3.495-.72,12.381,12.381,0,0,0,3.357-2.258Z" transform="translate(-115.6 -22.554)" fill="#20409a"/>
    </g>
  </g>
</svg>
